# xmcd
#
# Track frame offsets: 
#        150
#        20762
#        40670
#        63377
#        83930
#        101632
#        117450
#        139050
#        168977
#        187832
#        205702
#        226962
#        252422
#        265147
#        279907
#        295242
#
# Disc length: 4114 seconds
#
# Revision: 0
# Processed by: cddbd v1.5.2PL0 Copyright (c) Steve Scherf et al.
# Submitted via: ExactAudioCopy v0.99pb4
#
DISCID=e1101010
DTITLE=Eazy E - Featuring... Eazy E
DYEAR=2007
DGENRE=Gangsta Rap
TTITLE0=Luv Dem Gangsta'z
TTITLE1=Hard Mutha's (with MC Ren)
TTITLE2=Trust No Bitch (feat. Penthouse Players Clique)
TTITLE3=LA is The Place (with Ron-DeVu)
TTITLE4=Findum, Fuckum and Flee (feat. NWA)
TTITLE5=Get Yo Ride On (feat. Mack 10 and MC Ehit)
TTITLE6=Black Nigga Killa
TTITLE7=We Want Eazy (12" Remix)
TTITLE8=Foe Tha Love of $ (feat. Bone Thugs-N-Harmony)
TTITLE9=I'd Rather Fuck You (feat. NWA)
TTITLE10=24 Hrs to Live
TTITLE11=Boyz in That Hood (G Mix)
TTITLE12=Fat Girl (with Ron-De-Vu)
TTITLE13=Automobile (feat. NWA)
TTITLE14=PS P**k U 2 (feat. Penthouse Players Clique)
TTITLE15=Ruthless Villain (with MC Ren)
EXTD=
EXTT0=
EXTT1=
EXTT2=
EXTT3=
EXTT4=
EXTT5=
EXTT6=
EXTT7=
EXTT8=
EXTT9=
EXTT10=
EXTT11=
EXTT12=
EXTT13=
EXTT14=
EXTT15=
PLAYORDER=
